<?xml version="1.0" encoding="utf-8"?>
<!-- Generator: Adobe Illustrator 15.1.0, SVG Export Plug-In . SVG Version: 6.00 Build 0)  -->
<!DOCTYPE svg PUBLIC "-//W3C//DTD SVG 1.1//EN" "http://www.w3.org/Graphics/SVG/1.1/DTD/svg11.dtd">
<svg version="1.1" id="Layer_1" xmlns="http://www.w3.org/2000/svg" xmlns:xlink="http://www.w3.org/1999/xlink" x="0px" y="0px"
	 width="231.064px" height="222.604px" viewBox="0 0 231.064 222.604" enable-background="new 0 0 231.064 222.604"
	 xml:space="preserve">
<g>
	<g>
		<path fill="#7C7C7C" d="M198.5,222.604H9c-4.962,0-9-4.037-9-9v-173.5c0-4.962,4.038-9,9-9h133.813v10H10v171.5h187.5v-133.5h10
			v134.5C207.5,218.567,203.463,222.604,198.5,222.604z"/>
	</g>
	<g>
		<path fill="#7C7C7C" d="M72.913,166.298c-2.235,0-4.283-0.95-5.619-2.606c-1.416-1.755-1.905-4.062-1.377-6.496l5.832-26.905
			c0.671-3.097,2.785-6.972,5.027-9.213L195.222,2.631C196.918,0.934,199.178,0,201.585,0s4.667,0.934,6.363,2.631l20.484,20.484
			c3.51,3.509,3.51,9.219,0,12.729L109.986,154.288c-2.2,2.2-5.986,4.356-9.003,5.126l-25.916,6.605
			C74.346,166.204,73.621,166.298,72.913,166.298z M201.585,10.41L83.847,128.147c-0.87,0.87-2.064,3.06-2.325,4.261l-4.966,22.913
			l21.956-5.597c1.262-0.322,3.484-1.587,4.404-2.507L220.655,29.479L201.585,10.41z"/>
	</g>
	<g>
		<path fill="none" stroke="#7C7C7C" stroke-width="10" stroke-miterlimit="10" d="M141.25,35.188"/>
	</g>
	<g>
		<path fill="none" stroke="#7C7C7C" stroke-width="10" stroke-miterlimit="10" d="M202.25,81.188"/>
	</g>
</g>
</svg>
